<svg xmlns="http://www.w3.org/2000/svg" width="77" height="77" viewBox="0 0 77 77">
  <g id="_100_buyback_1" data-name="100 buyback_1" transform="translate(-8 -8.937)">
    <rect id="Rectangle_558" data-name="Rectangle 558" width="71" height="71" rx="10.55" transform="translate(11 11.937)" fill="#ddba83"/>
    <path id="Path_3619" data-name="Path 3619" d="M84,35.937a2.767,2.767,0,0,0,1-2v-11c0-8.144-6.862-14-15-14H47a2.752,2.752,0,0,0-2,1c-.084.079.069-.092,0,0H43c-.579-.869-1.956-1-3-1H33a2.752,2.752,0,0,0-2,1H30c-.576-.868-1.959-1-3-1H23a15.187,15.187,0,0,0-15,15v19c0,1.044.134,2.419,1,3v6a3.8,3.8,0,0,0-1,2v17a15.187,15.187,0,0,0,15,15h5a5.333,5.333,0,0,0,3-1c.146-.142-.111-.829,0-1H43c.584.813,1,2,2,2H58a2.718,2.718,0,0,0,2-1,12.9,12.9,0,0,0,1-1h7c.576.868.959,2,2,2h0a15.187,15.187,0,0,0,15-15v-14a2.767,2.767,0,0,0-1-2h0v-19Zm-4-1-3,4,1,6-1,8,3,3v14c0,6.084-3.924,10.871-10,11h0l-3-5-2,2-4-3-2,6H44l-4-5-4,3-8,2H24a10.871,10.871,0,0,1-11-11v-18l4-6-4-2v-20a10.871,10.871,0,0,1,11-11h4l1,3,3-3h9l2,4,3-4H69a10.88,10.88,0,0,1,11,11Z" transform="translate(0 0)" fill="#a08047"/>
    <path id="Path_3620" data-name="Path 3620" d="M63.3,51.09c-.42,1.48-1.59,3.56-2,5h0a4,4,0,0,0,8,0v-3c-.67-2.37-1.39-4.6-2-7-.23-.86-.79-2.14-1-3h0a2.886,2.886,0,0,0,2-3,2.89,2.89,0,0,0-3-2h-1c-.063-.086.083.067,0,0l-1-1c-1.66-1.033-3.327-1.96-5-3l-1,2-2,1h-1l2-2v-2l-2-1h0v-1l-5-2-5,3v2h-2v1l-5,1-2,2c-.1.08.083-.1,0,0h-1a3.536,3.536,0,0,0-2,1c-.753.692-1.26,1.011-1,2a2.724,2.724,0,0,0,2,2c-.08.25.07.75,0,1-.72,2.54-1.29,5.46-2,8-.36,1.25-.65,2.74-1,4,0,1.209.058,2.243,1,3s2.819.257,4,0c1.863-.381,3.039-1.1,3-3-.23-.86-.77-2.13-1-3-.64-2.36-1.37-4.64-2-7-.22-.81-.79-2.18-1-3,.87-.249,1.681-.154,2-1a5.585,5.585,0,0,1,1-1h6c0,.067,0,.933,0,1v6l1,1h1v1l-1,1v3l-1,1v9h-1l-1,1h-2c-.367.548-.042,1.342,0,2h-4a4.77,4.77,0,0,0-3,1,4.778,4.778,0,0,0-1,3h37a4.182,4.182,0,0,0,0-1,3.616,3.616,0,0,0-2-3l-1,1-3-1-1,1-2-2,1-1c-.578-.787-2.025-.938-3-1h-1v-4l-1,2v-4l-1-2h2v-15h6a7.262,7.262,0,0,1,1,1c.29.36-.28.63,0,1l2,1c0,.067,0-.067,0,0C64.6,46.51,64,48.62,63.3,51.09Zm-27,4c.006.067.006-.067,0,0h-5c.23-.89.74-1.11,1-2,.59-2.12,1.4-4.88,2-7,0-.15-.08.22,0,0,.15.53-.13.56,0,1C35.044,49.71,35.6,52.45,36.3,55.09Zm29-9c0-.14-.08.22,0,0,.69,2.55,1.35,4.52,2,7,.18.69.83,1.3,1,2h-5c.31-1.14.68-1.86,1-3C64.844,50.22,64.754,47.98,65.3,46.09Z" transform="translate(-3.304 -3.154)" fill="#a08047"/>
  </g>
</svg>
