<svg id="Layer_1" data-name="Layer 1" xmlns="http://www.w3.org/2000/svg" viewBox="0 0 100 100"><defs><style>.cls-1{fill:#ddba83;}.cls-2{fill:#a08047;}</style></defs><title>100 buyback_1</title><rect class="cls-1" x="11.35" y="12.25" width="77.31" height="77.31" rx="10.55"/><path class="cls-2" d="M90.61,38.33a3.42,3.42,0,0,0,1-2.4V24.69a16,16,0,0,0-16-16h-25a3.38,3.38,0,0,0-2.39,1,2.18,2.18,0,0,0-.25.28l-.19.24H45.65a3.39,3.39,0,0,0-2.82-1.51H35.05a3.38,3.38,0,0,0-2.39,1l-.52.52h-.42a3.38,3.38,0,0,0-2.81-1.51H24a16,16,0,0,0-16,16V46.27a3.41,3.41,0,0,0,1.51,2.82v5.67l-.79,1A3.44,3.44,0,0,0,8,57.86V76.24a16,16,0,0,0,16,16H30.2a3.37,3.37,0,0,0,2.4-1,2.92,2.92,0,0,0,.42-.51H45.49l.08.1a3.39,3.39,0,0,0,2.74,1.41H62.46a3.36,3.36,0,0,0,2.4-1,2.59,2.59,0,0,0,.42-.51h7.34a3.38,3.38,0,0,0,2.81,1.51h.15a16,16,0,0,0,16-16V61.31a3.42,3.42,0,0,0-1-2.4l-.51-.51V38.84Zm-3.9-.9L82.44,41.7l1.5,5.88-.81,8.65,3.58,3.57V75.23A12.13,12.13,0,0,1,74.84,87.36h0l-2.42-6.1-2.19,2.19L65.6,80.21,63,87.36H47.23l-4-5.53-5.08,3-8,1.73v.8H25.05A12.13,12.13,0,0,1,12.91,75.23V55.93L18,49.43,12.91,47V25.7A12.13,12.13,0,0,1,25.05,13.57h4.41l1.09,3,3-3H43.78l2.45,3.92,3.14-3.92h25.2A12.14,12.14,0,0,1,86.71,25.7Z"/><path class="cls-2" d="M62.83,51.16c-.42,1.48-.83,3-1.24,4.44,0,.07,0,.14,0,.21a4,4,0,0,0,8-.19l-.66-2.48C68.26,50.77,67.61,48.4,67,46c-.23-.86-.42-1.71-.63-2.57l.18-.08a2.76,2.76,0,0,0-1-5.33l-1,0a1.2,1.2,0,0,0-.22-.23L63,37q-2.49-1.55-5-3.11L57,35.64,55.28,37.1h-.66L56,35.37v-2L54.6,31.73h0l-.66-.41-4.15-2.61L44.7,31.9l-.27,2.4-1.7,0,0,.89-5,1.14-2.37,1.48a1.79,1.79,0,0,0-.28.27l-1.11,0a2.6,2.6,0,0,0-1.77.72,2.76,2.76,0,0,0,1.24,4.72c-.08.25-.16.49-.23.74-.72,2.54-1.44,5.07-2.15,7.61-.36,1.25-.71,2.51-1.06,3.77a4,4,0,0,0,4.85,3.9A3.94,3.94,0,0,0,38,55.6c-.23-.86-.45-1.73-.68-2.6-.64-2.36-1.28-4.71-1.91-7.07-.22-.81-.41-1.63-.62-2.45a2.86,2.86,0,0,0,1.89-1.74.36.36,0,0,1,.28-.21c2.26,0,4.51,0,6.76,0a1.41,1.41,0,0,1,0,.2v6.08l.84,1.33.71.35V50l-.88.81L44,54.18l-.31,1v8.59l-1.33,0-1,1.06-1.59.62-.44-.08a3,3,0,0,0-.5,1.86c-1.31,0-2.62,0-3.93,0a3.47,3.47,0,0,0-3.55,3.45H68.16c0-.2,0-.41-.08-.61a3.39,3.39,0,0,0-2.25-2.67l-.7.52-2.52-.36L61.2,68l-2-1.5.81-1.3a3.3,3.3,0,0,0-2.45-1.34l-1.72-.07V60.32l-.43,1.56-.15-3.62-.68-1.75,1.26-.69q0-5.52,0-11c0-1.08,0-2.16,0-3.24,2.24,0,4.49,0,6.74,0,.11,0,.24.16.33.27.29.36.56.74.84,1.11l1.19.64a1.62,1.62,0,0,1,0,.2C64.24,46.22,63.53,48.69,62.83,51.16ZM36.62,55.39a1.2,1.2,0,0,1,0,.2l-5.27,0c.23-.89.45-1.79.71-2.68.59-2.12,1.21-4.24,1.81-6.36,0-.15.1-.29.18-.51.15.53.29,1,.42,1.44C35.21,50.1,35.92,52.75,36.62,55.39Zm28.86-8.9c0-.14.1-.27.18-.49.69,2.55,1.35,5,2,7.48.18.69.35,1.39.52,2.09-.72,0-1.44,0-2.17,0-1,0-2.07,0-3.1,0,.31-1.14.62-2.28.94-3.42C64.39,50.28,64.93,48.38,65.48,46.49Z"/></svg>