<svg xmlns="http://www.w3.org/2000/svg" width="77" height="77" viewBox="0 0 77 77">
  <g id="icon-scarcity" transform="translate(-9.26 -8.4)">
    <rect id="Rectangle_559" data-name="Rectangle 559" width="70.74" height="70.71" rx="10.55" transform="translate(12.57 11.79)" fill="#ddba83"/>
    <path id="Path_3621" data-name="Path 3621" d="M85.339,35.709a3.076,3.076,0,0,0,.921-2.2V23.155A14.739,14.739,0,0,0,71.518,8.418H48.483a3.124,3.124,0,0,0-2.211.921,3.068,3.068,0,0,0-.23.258l-.166.184H43.913A3.115,3.115,0,0,0,41.324,8.4H34.156a3.1,3.1,0,0,0-2.211.921l-.47.47h-.341a3.133,3.133,0,0,0-2.6-1.382H24A14.739,14.739,0,0,0,9.26,23.146V43.032a3.14,3.14,0,0,0,1.382,2.6v5.222l-.728.921a3.149,3.149,0,0,0-.654,1.916V70.663A14.739,14.739,0,0,0,24,85.4h5.685a3.124,3.124,0,0,0,2.589-1.382h11.5l.064.092A3.115,3.115,0,0,0,46.373,85.4H59.411a3.142,3.142,0,0,0,2.211-.921,3.685,3.685,0,0,0,.378-.47h6.763a3.115,3.115,0,0,0,2.6,1.391h.129A14.739,14.739,0,0,0,86.232,70.663V56.847a3.094,3.094,0,0,0-.921-2.211l-.47-.47V36.179Zm-3.593-.82-3.934,3.933,1.382,5.416-.746,8,3.3,3.288V69.742A11.174,11.174,0,0,1,70.808,80.868h0l-2.239-5.6-2.018,2.017L62.3,74.311l-2.4,6.586H45.369L41.683,75.8,37,78.566l-7.371,1.593v.746h-4.7A11.184,11.184,0,0,1,13.747,69.742V51.92l4.681-5.987-4.681-2.238V24.086A11.184,11.184,0,0,1,24.933,12.9H29l1,2.763L32.764,12.9H42.19l2.257,3.611L47.341,12.9H70.56A11.174,11.174,0,0,1,81.745,24.086Z" transform="translate(0)" fill="#a08047"/>
    <path id="Path_3622" data-name="Path 3622" d="M73.85,50.23A18.73,18.73,0,0,1,60.66,66.88c-.67.22-1.37.37-2,.55l-.9.11L58.24,65c.15.34.4.43.9.31a16.4,16.4,0,0,0,5.34-2.36.63.63,0,0,0,.2-1c-.28-.44-.59-.88-.89-1.33a.792.792,0,0,0-1.25-.25l-1.68,1c-.1-.24-.17-.42-.22-.56l2.89-1.84.22.21c.61.66,1.24,1.34,1.87,2a.65.65,0,0,0,1.09,0,16.77,16.77,0,0,0,3.47-4.67.67.67,0,0,0-.34-1l-1.38-.68c-.64-.32-.88-.24-1.22.41a18.448,18.448,0,0,1-1,1.63l-.46-.35,1.57-3c.94.29,1.93.6,2.92.89a.65.65,0,0,0,.93-.44,17,17,0,0,0,.67-5.94.63.63,0,0,0-.74-.66c-.51,0-1,.07-1.53.1-.81,0-.95.22-.93,1v1.86l-.57-.09c0-1.16-.11-2.28-.17-3.43l2.91-.67c.58-.14.77-.39.63-1a16.33,16.33,0,0,0-2.36-5.41.64.64,0,0,0-1-.19c-.36.22-.71.48-1.07.72-1,.64-1,.72-.35,1.71.28.46.51.93.78,1.41-.24.09-.42.16-.54.22-.63-1-1.23-1.93-1.86-2.9l2.24-2.09a.67.67,0,0,0,0-1.08A16.59,16.59,0,0,0,62.67,34a.67.67,0,0,0-1,.37c-.24.47-.47.95-.71,1.43s-.17.82.38,1.12,1.13.66,1.74,1l-.4.45c-1-.53-2-1-3-1.57.3-1,.6-2,.9-2.95a.64.64,0,0,0-.43-.9,16.78,16.78,0,0,0-6-.69.62.62,0,0,0-.6.69c0,.63.06,1.27.11,1.9a.65.65,0,0,0,.74.63h.87c.29,0,.84.05,1.28.06a2.708,2.708,0,0,1-.1.57c-1,0-2,.09-3,.13l-1.12-5.69a18.11,18.11,0,0,1,4.66-.17l1.7,1.32,2.37.12,2.73.92.54-.07h0a18.8,18.8,0,0,1,8.8,10.82l-.75,2,1,1.11L73,48.7Z" transform="translate(-4.56 -3.118)" fill="#a08047"/>
    <path id="Path_3623" data-name="Path 3623" d="M64.44,56c-.38.49-.33.78.14,1.15l1.3,1A.64.64,0,0,0,67,58c.43-.62.85-1.25,1.29-1.9l.53.26a15.21,15.21,0,0,1-2.59,3.49l-1.85-2L64,57.54a.63.63,0,0,0-.92,0,12.44,12.44,0,0,1-3.57,2.29.58.58,0,0,0-.34.82c.22.6.46,1.2.72,1.79a.62.62,0,0,0,.94.31c.71-.31,1.38-.64,2.11-1,.1.14.21.3.33.5a15.83,15.83,0,0,1-4,1.74c-.16-.68-.31-1.34-.46-2-.08-.37-.16-.73-.27-1.1a.6.6,0,0,0-.76-.5h0L56.3,58.06l-.15-1.13,2-2.82L57.27,53l-3-1.07.48-6.46L52,44l.12-1.13,2-2.88-.49-2.47a13,13,0,0,1,3.24,0,.62.62,0,0,0,.7-.58c.09-.62.18-1.23.26-1.84a.62.62,0,0,0-.61-.76c-.77-.09-1.56-.14-2.39-.21v-.57a15,15,0,0,1,4.31.49c-.24.82-.47,1.63-.74,2.44s-.42,1.24.81,1.63a10.09,10.09,0,0,1,3,1.62c.54.4.81.37,1.22-.17s.65-.82,1-1.24a.638.638,0,0,0-.15-1.08c-.63-.44-1.28-.86-1.91-1.3.07-.16.15-.34.25-.53A14.52,14.52,0,0,1,66,38l-1.55,1.47c-.26.23-.5.45-.73.68a.62.62,0,0,0-.06,1,12.25,12.25,0,0,1,2.24,3.52.61.61,0,0,0,.87.37c.59-.22,1.16-.45,1.73-.69a.64.64,0,0,0,.34-1c-.3-.68-.65-1.38-1-2.11l.49-.32a15.27,15.27,0,0,1,1.73,4l-1.92.45-1,.24c-.57.15-.68.36-.63.95.11,1.05.18,2.12.25,3.18a7.381,7.381,0,0,1-.07.81.64.64,0,0,0,.62.83c.59.1,1.17.17,1.74.25a.65.65,0,0,0,.82-.61c.08-.78.12-1.56.19-2.38h.57a15,15,0,0,1-.47,4.33l-2.84-.86c-.65-.21-.89-.09-1.11.55A12,12,0,0,1,64.44,56Z" transform="translate(-4.325 -3.123)" fill="#a08047"/>
    <path id="Path_3624" data-name="Path 3624" d="M46.59,70.73h0l-1,2.41-1.43-.1L43.91,73a16.28,16.28,0,0,1-2-.39l-1.57-1.84H38.75l-1.2-.92-2.23-.37c-.24-.17-.46-.36-.7-.55A18.45,18.45,0,0,1,28,56.5c-.07-.69-.11-1.38-.16-2.07L28,52.1a1.873,1.873,0,0,1,.08-.32c.19-.87.33-1.77.58-2.64a2,2,0,0,1,.08-.22L31.24,47l-.32-1,2-3.62v-.7a18.86,18.86,0,0,1,14.16-5.89l.05,5.81-.45-.07c0-1-.08-2-.1-3,0-.61-.25-.84-.87-.8A16.13,16.13,0,0,0,40,39.06a.62.62,0,0,0-.37.92c.15.39.32.76.49,1.14.47,1.12.52,1.14,1.65.71.48-.18,1-.33,1.51-.5.06.25.08.44.11.57L40.2,43.19c-.55-.84-1.09-1.73-1.65-2.59a.64.64,0,0,0-1-.22,16.38,16.38,0,0,0-4.32,4,.65.65,0,0,0,.15,1.06c.41.32.82.62,1.23.93.58.43.82.4,1.28-.16s.84-1,1.23-1.42c.18.19.33.32.42.41-.72.9-1.41,1.79-2.11,2.69l-.43-.2c-.79-.42-1.57-.84-2.36-1.24a.63.63,0,0,0-1,.28,16.87,16.87,0,0,0-1.77,5.71.63.63,0,0,0,.6.79l1.57.19c.75.1.94-.06,1.06-.81s.24-1.23.36-1.85c.75.2.62.16.52.69-.15.84-.24,1.68-.35,2.53a2.12,2.12,0,0,0,0,.37c-1,0-2,.09-3,.11-.68,0-.89.24-.85.92A16.65,16.65,0,0,0,31.13,61a.65.65,0,0,0,1,.41c.46-.18.9-.39,1.36-.57.81-.36.86-.52.54-1.37-.21-.55-.39-1.12-.59-1.7l.59-.12,1.28,3.2L32.7,62.47a.67.67,0,0,0-.24,1.05,16.59,16.59,0,0,0,4,4.31.65.65,0,0,0,1-.13c.31-.4.61-.82.92-1.22.46-.62.42-.85-.18-1.33s-.94-.83-1.4-1.24l.41-.4c.93.72,1.81,1.4,2.72,2.12a.944.944,0,0,1-.16.32c-.42.8-.86,1.61-1.27,2.42a.64.64,0,0,0,.27,1,17.11,17.11,0,0,0,5.71,1.78.66.66,0,0,0,.8-.66c.06-.51.12-1,.19-1.55.1-.7-.07-.92-.77-1s-1.26-.24-1.92-.37c.09-.25.16-.42.2-.57l3.41.49c0,1,.09,2,.12,2.95a1.16,1.16,0,0,0,.08.29Z" transform="translate(-1.899 -3.908)" fill="#a08047"/>
    <path id="Path_3625" data-name="Path 3625" d="M46,63.58l1,2.49a12.29,12.29,0,0,1-4.21-.62.62.62,0,0,0-.78.43c-.22.6-.42,1.19-.62,1.8a.63.63,0,0,0,.48.84c.75.23,1.49.42,2.3.63a1.8,1.8,0,0,1-.07.57A14.84,14.84,0,0,1,40,68.45c.47-.88.92-1.74,1.37-2.6.32-.63.26-.87-.35-1.21a12.48,12.48,0,0,1-3-2.34c-.48-.52-.74-.52-1.26,0a11.506,11.506,0,0,1-1.18,1,.64.64,0,0,0-.05,1.06c.53.55,1.09,1.08,1.65,1.64-.1.14-.22.28-.35.47a14.43,14.43,0,0,1-3-3.19l2.5-1.6c.57-.36.63-.63.29-1.2A11.15,11.15,0,0,1,35.24,57c-.15-.66-.38-.8-1-.67s-1,.19-1.54.3a.66.66,0,0,0-.6.92c.17.74.39,1.47.6,2.24l-.51.22a11.82,11.82,0,0,1-1-4.23l1.95-.08a7.072,7.072,0,0,0,1.13-.06.716.716,0,0,0,.69-.78,12.07,12.07,0,0,1,.45-3.54h0c.3-1.07.26-1.14-.77-1.49-.42-.14-.83-.29-1.25-.42a.64.64,0,0,0-.89.45c-.22.76-.42,1.51-.63,2.31L31.33,52a13.21,13.21,0,0,1,1.27-4.16l1.85,1c.3.16.6.32.91.47a.64.64,0,0,0,1-.27,12.49,12.49,0,0,1,2.55-3.27.61.61,0,0,0,.06-1c-.39-.47-.8-.92-1.21-1.38a.62.62,0,0,0-1,0c-.56.54-1.1,1.1-1.66,1.66l-.47-.35a14.19,14.19,0,0,1,3.19-2.95c.55.86,1.09,1.7,1.62,2.55.33.51.63.56,1.16.24a11.57,11.57,0,0,1,3.5-1.4c.68-.14.83-.38.7-1-.09-.5-.19-1-.29-1.48a.732.732,0,0,0-1-.65c-.63.15-1.42.38-2.16.58-.07-.15-.14-.33-.23-.54a14.47,14.47,0,0,1,4.24-1c0,.7.06,1.36.08,2a8.547,8.547,0,0,0,.05,1.13.62.62,0,0,0,.69.65h1v2.52L44.57,48l-3.32-.22,2.82.95L46.8,50.9l-1.68,6.26,2.74,1.59L48.54,60,46,62.44Z" transform="translate(-2.176 -3.822)" fill="#a08047"/>
  </g>
</svg>
