<svg xmlns="http://www.w3.org/2000/svg" width="77" height="77" viewBox="0 0 77 77">
  <g id="icon-unlock" transform="translate(-9.46 -8.17)">
    <rect id="Rectangle_560" data-name="Rectangle 560" width="70.77" height="70.77" rx="10.55" transform="translate(12.77 11.53)" fill="#ddba83"/>
    <path id="Path_3626" data-name="Path 3626" d="M85.538,35.48a3.152,3.152,0,0,0,.922-2.212V22.917A14.747,14.747,0,0,0,71.713,8.17H48.67a3.115,3.115,0,0,0-2.2.922,2.01,2.01,0,0,0-.23.258l-.175.212H44.126a3.115,3.115,0,0,0-2.6-1.383H34.355a3.079,3.079,0,0,0-2.2.922l-.47.47h-.4A3.1,3.1,0,0,0,28.7,8.188H24.207A14.747,14.747,0,0,0,9.46,22.936V42.808a3.115,3.115,0,0,0,1.392,2.59v5.235l-.728.922a3.143,3.143,0,0,0-.664,1.917v16.95A14.747,14.747,0,0,0,24.207,85.17h5.687a3.143,3.143,0,0,0,2.212-.922,3.088,3.088,0,0,0,.387-.47H43.978l.074.092a3.115,3.115,0,0,0,2.526,1.29H59.62a3.134,3.134,0,0,0,2.212-.922,3.087,3.087,0,0,0,.387-.47h6.729a3.134,3.134,0,0,0,2.6,1.383h.166A14.747,14.747,0,0,0,86.46,70.4V56.661a3.115,3.115,0,0,0-.922-2.2l-.47-.479V35.95Zm-3.595-.82-3.936,3.927,1.383,5.429-.747,7.964,3.3,3.3V69.492A11.18,11.18,0,0,1,71.03,80.672h0L68.8,75.059l-2.019,2.019L62.5,74.091l-2.387,6.59H45.582L41.9,75.575,37.213,78.34l-7.374,1.595v.747h-4.7a11.19,11.19,0,0,1-11.19-11.19V51.7l4.673-5.991-4.673-2.24V23.848a11.18,11.18,0,0,1,11.19-11.226H29.2l1.032,2.765L33,12.622h9.4l2.258,3.687,2.894-3.687H70.791a11.19,11.19,0,0,1,11.18,11.226Z" transform="translate(0)" fill="#a08047"/>
    <path id="Path_3627" data-name="Path 3627" d="M66.312,51V62.9a3.418,3.418,0,0,1-.756,2.465,2.391,2.391,0,0,1-2.091.885H61.837l.212-4-.695-3.18v2.48l-.5,2.81-1.11,1.89H32.9a2.375,2.375,0,0,1-2.091-.828A3.393,3.393,0,0,1,30,63l1.695-2.42-.847-1.7.847-3.11-1.636-2V51H44.041a.707.707,0,0,1,.669.39c.771,1.17,1.568,2.32,2.347,3.47a1.218,1.218,0,0,0,2.246,0c.788-1.16,1.576-2.33,2.381-3.49a.719.719,0,0,1,.483-.32H66.134Z" transform="translate(0 -4.103)" fill="#a08047"/>
    <path id="Path_3628" data-name="Path 3628" d="M59.06,35.7V47.9H56c-.14,0-.31-.18-.42-.33-.94-1.16-1.87-2.33-2.81-3.5a1.58,1.58,0,0,0-2.66,0c-.93,1.18-1.87,2.33-2.8,3.51a.76.76,0,0,1-.68.34H43.84V35.7H50l2.38.82,2.13-.82Z" transform="translate(-3.291 -2.525)" fill="#a08047"/>
    <path id="Path_3629" data-name="Path 3629" d="M40.73,35.68V47.87H30.11c-.37-3.9.09-7.51,3.29-10.1l2,1.33L37,40.22l-1.19-2.29.23-1.7a9.28,9.28,0,0,1,3.08-.55Z" transform="translate(-1.845 -2.522)" fill="#a08047"/>
    <path id="Path_3630" data-name="Path 3630" d="M72.85,45.13v2.75H62.18V35.62a28.219,28.219,0,0,1,3.05.2,9.33,9.33,0,0,1,4.45,2.08v1.87l1.4.75,1.19,4Z" transform="translate(-4.732 -2.519)" fill="#a08047"/>
  </g>
</svg>
