<svg id="Layer_1" data-name="Layer 1" xmlns="http://www.w3.org/2000/svg" viewBox="0 0 100 100"><defs><style>.cls-1{fill:#ddba83;}.cls-2{fill:#a08047;}</style></defs><title>invite and earn_1</title><rect class="cls-1" x="11.74" y="12.07" width="77.31" height="77.31" rx="10.55"/><path class="cls-2" d="M91.22,38.15a3.42,3.42,0,0,0,1-2.4V24.52a16,16,0,0,0-16-16h-25a3.38,3.38,0,0,0-2.39,1,2.26,2.26,0,0,0-.25.28l-.19.23H46.26a3.38,3.38,0,0,0-2.82-1.5H35.66a3.34,3.34,0,0,0-2.39,1l-.51.51h-.43a3.36,3.36,0,0,0-2.81-1.5H24.65a16,16,0,0,0-16,16V46.1a3.37,3.37,0,0,0,1.5,2.81v5.68l-.79,1a3.4,3.4,0,0,0-.71,2.08V76.06a16,16,0,0,0,16,16h6.16a3.41,3.41,0,0,0,2.4-1,3.35,3.35,0,0,0,.42-.51H46.11l.07.09a3.37,3.37,0,0,0,2.75,1.41H63.08a3.39,3.39,0,0,0,2.81-1.5h7.34a3.4,3.4,0,0,0,2.82,1.5h.14a16,16,0,0,0,16-16V61.13a3.38,3.38,0,0,0-1-2.39l-.51-.52V38.66Zm-3.9-.89-4.27,4.26,1.5,5.88-.81,8.65,3.58,3.58V75.05A12.13,12.13,0,0,1,75.45,87.18h0L73,81.08l-2.19,2.19L66.21,80l-2.59,7.15H47.84l-4-5.54-5.08,3-8,1.73v.81H25.66A12.14,12.14,0,0,1,13.52,75.05V55.75l5.07-6.5-5.07-2.43V25.53A12.13,12.13,0,0,1,25.66,13.39h4.41l1.09,3,3-3H44.39l2.45,3.92L50,13.39h25.2A12.14,12.14,0,0,1,87.32,25.53Z"/><path class="cls-2" d="M72.45,31.66a9,9,0,0,0-4.94-3.74l-1.46-.36H63.74a5.73,5.73,0,0,1-.69.16c-5.54.89-7.69,5.33-7.61,9.63h.05a7.28,7.28,0,0,1-2.75,1.94,12.1,12.1,0,0,1-7.15.3c-1.34-.36-2.66-.75-4-1.13h0a3.37,3.37,0,0,0-2.06,0l-1.45-.41a7.71,7.71,0,0,0-1.44,0,5.63,5.63,0,0,0-4.4,3.59,17.42,17.42,0,0,0-1,5.44,18,18,0,0,1-.91,5.5.7.7,0,0,0,.5.94,2.65,2.65,0,0,0,1.75-.22A3.85,3.85,0,0,0,34.72,51a10.67,10.67,0,0,0,.71-3.45c.46,1.39,1,2.77,1.36,4.16A2.72,2.72,0,0,1,36.7,54a2.06,2.06,0,0,0,0,2.37A7.61,7.61,0,0,1,37,62.34a1,1,0,0,0,.36,1.18l1.87.08H37.9L36,63.52c-.47,0-.95.06-1.43.06H29.06c-.59,0-.8.2-.83.79,0,.26,0,.51,0,.77,0,.5,0,1,0,1.49a.73.73,0,0,0,.82.8l1,0c0,.19,0,.37,0,.56a3.9,3.9,0,0,0,5.06,3.28h0a3.92,3.92,0,0,0,2.76-3.86H39.8c0,.26.05.51.08.77a3.91,3.91,0,0,0,5.06,3.1,4,4,0,0,0,2.75-3.87h1.88c0,.28,0,.57.09.85a3.92,3.92,0,0,0,5.06,3,12.49,12.49,0,0,0,1.56-1,3.86,3.86,0,0,0,1.18-2.88h1.89c0,.11,0,.23,0,.34A3.93,3.93,0,0,0,64.5,71.3a3.89,3.89,0,0,0,2.69-3.84c.34,0,.68,0,1,0,.52,0,.76-.25.76-.76s0-1,0-1.54c0-.2,0-.4,0-.6a2.71,2.71,0,0,0,0-.29.6.6,0,0,0-.63-.66H63.2s0,0,0,0h-.08l-1.15,0H61.6a2.59,2.59,0,0,0,.08-.58.28.28,0,0,0,0-.09v0a.28.28,0,0,0,0-.09.25.25,0,0,0,0-.08v0a.31.31,0,0,0,0-.08h0a.36.36,0,0,0,0-.09h0l0-.06a1.27,1.27,0,0,0-.13-.19l-.06-.06a1,1,0,0,0-.15-.14L61,61.93h0a2.28,2.28,0,0,0-.35-.17l-.22-.09-.67-.28c-.3-.12-.59-.25-.88-.39l-.07,0,0,0-.09,0-.06,0-.08-.06,0,0,0,0-.13-.15,0-.06a.16.16,0,0,0,0-.07.21.21,0,0,0,0-.06l0-.07,0-.09,0-.12L58,59.82s0-.09,0-.14,0-.31-.05-.47,0-.21,0-.31v-.09c0-.1,0-.21,0-.31s0-.26,0-.39,0-.2,0-.31a1.77,1.77,0,0,1,0-.23v-.15c0-.14,0-.28,0-.42a1.41,1.41,0,0,0,0-.2c0-.08,0-.17,0-.25l0-.3c0-.31.06-.62.1-.92v0c0-.08,0-.16,0-.25s0-.08,0-.12a.09.09,0,0,1,0,0c0-.2.07-.4.11-.6l0-.14.09-.45a.83.83,0,0,1,0-.15l.12-.51.15-.53,0-.1a0,0,0,0,1,0,0,2.76,2.76,0,0,1,.08-.27,2.81,2.81,0,0,1,.1-.31c0-.11.06-.21.1-.32a1.7,1.7,0,0,1,.33-.64c.59-.65,1.22-1.28,1.83-1.91l1.05-1.54a2.13,2.13,0,0,0,.29-.93,10.74,10.74,0,0,0,.07-1.32c0-.8-.05-1.65-.05-2.28,0-.79,0-1.6.13-2.39a16.93,16.93,0,0,1,.49-2.33.8.8,0,0,1,.84-.71.9.9,0,0,1,.8.83,9.23,9.23,0,0,1,.12,1.57c0,.7-.08,1.4-.12,2.1a.72.72,0,0,0,.58.82,11.34,11.34,0,0,0,1.14.2c.62.07.78-.11,1-.7.34-1.16.7-2.31,1.11-3.45a1.82,1.82,0,0,1,.63-.7.91.91,0,0,0,.43-.69c.06-.75.17-1.5.21-2.26a1.46,1.46,0,0,1,.42-1,9.48,9.48,0,0,0,.69-.85c.42-.21.85-.41,1.26-.63A.62.62,0,0,0,72.45,31.66ZM55.65,63.6h-12a1.38,1.38,0,0,0,.24-1.1,1.81,1.81,0,0,0-1.35-1.37l-.19-.06L42.2,61,42,60.93l-.14-.06-.37-.14-.14,0-.14,0-.14,0-.23-.1a1.05,1.05,0,0,1-.27-.24l0,0c0-.06-.06-.12-.09-.17l0-.08a.43.43,0,0,1,0-.11l0-.09a.68.68,0,0,0,0-.14v-.11c0-.08,0-.16,0-.25a31.32,31.32,0,0,1-.16-3.62,11.27,11.27,0,0,1,1.47-5.34,1,1,0,0,1,1.25-.43.94.94,0,0,1,.22.12l0,0c.57.42.81.56,3.82,1.2h0l.22,0a18.28,18.28,0,0,0,6.43-.14.8.8,0,0,1,.85.24l.16.39a1.25,1.25,0,0,1,.11.41,26.9,26.9,0,0,1,.14,3.35,6.61,6.61,0,0,0,.25,2.35,6.64,6.64,0,0,1,.28,4.5A1,1,0,0,0,55.65,63.6Z"/></svg>