<svg xmlns="http://www.w3.org/2000/svg" width="34" height="34" viewBox="0 0 34 34">
  <g id="Group_1039" data-name="Group 1039" transform="translate(-2960 118)">
    <g id="Group_1038" data-name="Group 1038" transform="translate(2654.232 -133.768)">
      <circle id="Ellipse_49" data-name="Ellipse 49" cx="14" cy="14" r="14" transform="translate(308.768 18.768)" fill="#08c"/>
      <circle id="Ellipse_797" data-name="Ellipse 797" cx="17" cy="17" r="17" transform="translate(305.768 15.768)" fill="#08c" opacity="0.39"/>
      <g id="console" transform="translate(313.511 -28.322)">
        <g id="Group_1025" data-name="Group 1025" transform="translate(0 55.109)">
          <g id="Group_1024" data-name="Group 1024" transform="translate(0 0)">
            <path id="Path_3856" data-name="Path 3856" d="M18.2,63.383a17,17,0,0,0-.5-3.29,12.625,12.625,0,0,0-1.021-2.768c-1.588-2.79-3.312-2.359-5.377-1.815a14.777,14.777,0,0,1-2.087.408H8.994a14.777,14.777,0,0,1-2.087-.408c-2.064-.522-3.789-.976-5.377,1.838A11.565,11.565,0,0,0,.509,60.116a17,17,0,0,0-.5,3.29,6.181,6.181,0,0,0,.318,2.586,1.719,1.719,0,0,0,1.089,1.021,2.218,2.218,0,0,0,1.452-.159,10.663,10.663,0,0,0,2.9-2.064,5.009,5.009,0,0,1,3.335-1.021,5.009,5.009,0,0,1,3.335,1.021,10.663,10.663,0,0,0,2.9,2.064,2.373,2.373,0,0,0,1.452.159,1.7,1.7,0,0,0,1.089-1.044A6.066,6.066,0,0,0,18.2,63.383Zm-1.089,2.269a.9.9,0,0,1-.544.567,1.567,1.567,0,0,1-.93-.113,9.252,9.252,0,0,1-2.632-1.883,5.665,5.665,0,0,0-3.9-1.293,5.982,5.982,0,0,0-3.925,1.248A9.426,9.426,0,0,1,2.551,66.06a1.407,1.407,0,0,1-.93.113.9.9,0,0,1-.544-.567A5.364,5.364,0,0,1,.85,63.428,15.649,15.649,0,0,1,1.326,60.3a10.825,10.825,0,0,1,.953-2.564c1.248-2.246,2.7-1.883,4.424-1.429a13.308,13.308,0,0,0,2.223.431h.34a13.143,13.143,0,0,0,2.246-.431c1.724-.431,3.176-.817,4.424,1.429a10.461,10.461,0,0,1,.953,2.564,17.171,17.171,0,0,1,.476,3.131A5.25,5.25,0,0,1,17.116,65.651Z" transform="translate(0 -55.109)" fill="#fff" stroke="#fff" stroke-width="0.2"/>
          </g>
        </g>
        <g id="Group_1027" data-name="Group 1027" transform="translate(2.699 57.721)">
          <g id="Group_1026" data-name="Group 1026" transform="translate(0 0)">
            <path id="Path_3857" data-name="Path 3857" d="M45.4,96.348a1.187,1.187,0,0,0-.7-.332,1.111,1.111,0,0,0-.313-.684l-.02-.02a1.106,1.106,0,0,0-.8-.332,1.153,1.153,0,0,0-.8.332,1.135,1.135,0,0,0-.332.7,1.164,1.164,0,0,0-.7.313l-.02.02a1.106,1.106,0,0,0-.332.8,1.153,1.153,0,0,0,.332.8,1.089,1.089,0,0,0,.723.332,1.042,1.042,0,0,0,.332.7,1.106,1.106,0,0,0,.8.332,1.153,1.153,0,0,0,.8-.332,1.187,1.187,0,0,0,.332-.7,1.042,1.042,0,0,0,.7-.332,1.106,1.106,0,0,0,.332-.8A1.153,1.153,0,0,0,45.4,96.348Zm-.488,1.094a.4.4,0,0,1-.293.117h-.273a.371.371,0,0,0-.371.371v.254a.41.41,0,1,1-.82,0v-.273a.371.371,0,0,0-.371-.371h-.273a.4.4,0,0,1-.293-.684l.02-.02a.467.467,0,0,1,.273-.1h.273a.371.371,0,0,0,.371-.371v-.273a.414.414,0,0,1,.7-.293l.02.02a.467.467,0,0,1,.1.273v.273a.371.371,0,0,0,.371.371h.273a.414.414,0,0,1,.293.7Z" transform="translate(-41.373 -94.981)" fill="#fff"/>
          </g>
        </g>
        <g id="Group_1029" data-name="Group 1029" transform="translate(12.318 57.658)">
          <g id="Group_1028" data-name="Group 1028" transform="translate(0 0)">
            <ellipse id="Ellipse_798" data-name="Ellipse 798" cx="0.737" cy="0.736" rx="0.737" ry="0.736" fill="#fff"/>
          </g>
        </g>
        <g id="Group_1031" data-name="Group 1031" transform="translate(12.318 60.647)">
          <g id="Group_1030" data-name="Group 1030" transform="translate(0)">
            <ellipse id="Ellipse_799" data-name="Ellipse 799" cx="0.737" cy="0.736" rx="0.737" ry="0.736" fill="#fff"/>
          </g>
        </g>
        <g id="Group_1033" data-name="Group 1033" transform="translate(10.824 59.152)">
          <g id="Group_1032" data-name="Group 1032" transform="translate(0 0)">
            <ellipse id="Ellipse_800" data-name="Ellipse 800" cx="0.737" cy="0.736" rx="0.737" ry="0.736" fill="#fff"/>
          </g>
        </g>
        <g id="Group_1035" data-name="Group 1035" transform="translate(13.812 59.152)">
          <g id="Group_1034" data-name="Group 1034" transform="translate(0 0)">
            <ellipse id="Ellipse_801" data-name="Ellipse 801" cx="0.737" cy="0.736" rx="0.737" ry="0.736" fill="#fff"/>
          </g>
        </g>
      </g>
    </g>
  </g>
</svg>
