<svg id="Layer_1" data-name="Layer 1" xmlns="http://www.w3.org/2000/svg" viewBox="0 0 100 100"><defs><style>.cls-1{fill:#ddba83;}.cls-2{fill:#a08047;}</style></defs><title>stake and earn_1</title><rect class="cls-1" x="11.74" y="12.25" width="77.31" height="77.31" rx="10.55"/><path class="cls-2" d="M91.22,38.33a3.42,3.42,0,0,0,1-2.4V24.69a16,16,0,0,0-16-16h-25a3.38,3.38,0,0,0-2.39,1,3.33,3.33,0,0,0-.25.28l-.19.24H46.26a3.39,3.39,0,0,0-2.82-1.51H35.66a3.38,3.38,0,0,0-2.39,1l-.51.52h-.43a3.37,3.37,0,0,0-2.81-1.51H24.65a16,16,0,0,0-16,16V46.27a3.41,3.41,0,0,0,1.5,2.82v5.67l-.79,1a3.43,3.43,0,0,0-.71,2.09V76.24a16,16,0,0,0,16,16h6.16a3.37,3.37,0,0,0,2.4-1,2.92,2.92,0,0,0,.42-.51H46.11l.07.1a3.39,3.39,0,0,0,2.75,1.41H63.08a3.34,3.34,0,0,0,2.39-1,2.59,2.59,0,0,0,.42-.51h7.34a3.39,3.39,0,0,0,2.82,1.51h.14a16,16,0,0,0,16-16V61.31a3.42,3.42,0,0,0-1-2.4l-.51-.51V38.84Zm-3.9-.9L83.05,41.7l1.5,5.88-.81,8.65,3.58,3.57V75.23A12.13,12.13,0,0,1,75.45,87.36h0L73,81.25l-2.19,2.19-4.62-3.23-2.59,7.15H47.84l-4-5.53-5.08,3-8,1.73v.8H25.66A12.13,12.13,0,0,1,13.52,75.23V55.93l5.07-6.5L13.52,47V25.7A12.13,12.13,0,0,1,25.66,13.57h4.41l1.09,3,3-3H44.39l2.45,3.92L50,13.57h25.2A12.14,12.14,0,0,1,87.32,25.7Z"/><path class="cls-2" d="M60.52,31.07A21.93,21.93,0,0,0,29,45.63c-.23,1-.32,2.08-.47,3.13,0,.12-.05.25-.08.37v2.74c.11.8.2,1.61.34,2.4a21.57,21.57,0,0,0,8.72,14,21.29,21.29,0,0,0,11.16,4.11c.11,0,.22,0,.33.07h2.74c.81-.11,1.64-.19,2.45-.34a22,22,0,0,0,17.9-18.65A21.93,21.93,0,0,0,60.52,31.07Zm7.83,27.36a.76.76,0,0,1-1.14.38c-1.11-.48-2.21-1-3.27-1.45l-2.26,3.32.49.46c.45-.57.92-1.16,1.35-1.76s.78-.75,1.49-.29l1.5,1a.79.79,0,0,1,.25,1.27,19.71,19.71,0,0,1-4.7,4.94.77.77,0,0,1-1.27-.19L58.9,63.5a3.08,3.08,0,0,0-.22-.28L55.05,65c0,.17.1.38.18.68.72-.31,1.42-.59,2.1-.89s1-.26,1.41.47l.85,1.67A.75.75,0,0,1,59.22,68a19.35,19.35,0,0,1-6.55,2c-.75.09-1-.16-1.09-.9-.11-1.16-.24-2.32-.36-3.44l-4-.32c-.05.17-.11.38-.19.68.78.1,1.52.22,2.26.28s1,.31,1,1.14c0,.61-.07,1.22-.11,1.83s-.33.85-.88.81a19.59,19.59,0,0,1-6.82-1.64.75.75,0,0,1-.39-1.1c.43-1,.87-1.95,1.3-2.92.07-.15.12-.29.17-.39l-3.34-2.27q-.15.15-.45.51c.57.43,1.14.9,1.73,1.33.74.53.8.78.3,1.54-.32.5-.64,1-1,1.51a.76.76,0,0,1-1.2.23,19.31,19.31,0,0,1-5-4.75.77.77,0,0,1,.2-1.24l2.88-2.1c-.58-1.23-1.15-2.42-1.74-3.64l-.68.18c.28.67.53,1.31.82,1.94.44,1,.39,1.16-.54,1.64L34,59.7a.77.77,0,0,1-1.16-.4,19.8,19.8,0,0,1-2-6.47c-.1-.79.14-1.06.93-1.14l3.49-.36c0-.16,0-.3,0-.44.07-1,.11-2,.22-3,.07-.62.24-.58-.66-.76-.1.73-.22,1.46-.28,2.19-.08.89-.29,1.09-1.18,1l-1.84-.1a.75.75,0,0,1-.77-.88,19.59,19.59,0,0,1,1.64-6.81.75.75,0,0,1,1.1-.4l2.85,1.26.46.2,2.26-3.32-.52-.43c-.42.55-.89,1.14-1.33,1.74s-.77.75-1.49.28l-1.5-1A.77.77,0,0,1,34,39.69a19.81,19.81,0,0,1,4.75-5,.76.76,0,0,1,1.21.19c.72,1,1.43,1.95,2.13,2.91L45.72,36c0-.15-.09-.37-.17-.66-.59.24-1.18.45-1.74.7-1.28.58-1.33.57-2-.7-.22-.43-.44-.86-.65-1.29A.74.74,0,0,1,41.54,33a19.07,19.07,0,0,1,6.59-2c.72-.08,1,.17,1.07.88.11,1.16.23,2.32.35,3.47l4,.31c0-.15.11-.36.2-.65-.52-.08-1-.18-1.48-.24s-.68-.06-1-.09a.75.75,0,0,1-.77-.84c0-.74.08-1.48.14-2.22a.72.72,0,0,1,.8-.71,19.59,19.59,0,0,1,6.9,1.65.75.75,0,0,1,.37,1.11L57.25,37l3.31,2.26.53-.46c-.66-.5-1.26-1-1.88-1.43s-.67-.74-.28-1.35l1-1.58a.78.78,0,0,1,1.26-.27,19.58,19.58,0,0,1,5,4.72A.78.78,0,0,1,66,40.09L63.1,42.2c.59,1.21,1.16,2.4,1.75,3.64l.66-.17c-.24-.6-.45-1.19-.71-1.75-.58-1.25-.56-1.34.66-2l1.34-.68a.75.75,0,0,1,1.11.37,19.5,19.5,0,0,1,2,6.63c.08.68-.18.95-.88,1l-3.49.37c-.09,1.33-.19,2.66-.28,4l.66.19c.1-.74.22-1.46.28-2.17.09-1,.28-1.14,1.23-1.07l1.79.1a.74.74,0,0,1,.77.87A19.8,19.8,0,0,1,68.35,58.43Z"/><path class="cls-2" d="M62.7,56.25c.34-.71.63-.81,1.36-.49l3.18,1.42a17.82,17.82,0,0,0,1.17-5l-.67,0c-.2.95-.36,1.85-.57,2.73a.74.74,0,0,1-1,.6l-2-.53a.77.77,0,0,1-.62-1.06,6.06,6.06,0,0,0,.2-.92c.07-1.25.14-2.5.17-3.75,0-.69.18-.92.87-1,.41-.06.82-.08,1.23-.13l2.31-.25A17.73,17.73,0,0,0,66.86,43l-.61.31c.3.9.61,1.75.87,2.6a.75.75,0,0,1-.55,1.07c-.69.2-1.39.39-2.1.56a.73.73,0,0,1-1-.55,14.13,14.13,0,0,0-2.11-4.41.74.74,0,0,1,.21-1.12c.31-.23.62-.46.94-.68l2-1.49a17.64,17.64,0,0,0-3.7-3.52l-.38.59c.69.6,1.38,1.18,2,1.78a.76.76,0,0,1,0,1.28l-1.3,1.3c-.56.56-.88.57-1.45,0a11.87,11.87,0,0,0-3.27-2.3c-1.38-.63-1.21-.95-.71-2,.42-.89.81-1.8,1.21-2.73a17.62,17.62,0,0,0-4.95-1.18c0,.26,0,.48,0,.68.95.19,1.86.36,2.75.57a.74.74,0,0,1,.6,1q-.27,1.05-.57,2.1a.74.74,0,0,1-.9.59A14.87,14.87,0,0,0,49,37a.72.72,0,0,1-.84-.71c-.06-.44-.09-.88-.14-1.32-.08-.78-.17-1.55-.25-2.37A17.81,17.81,0,0,0,42.85,34l.31.62c.85-.29,1.66-.59,2.49-.84s1,0,1.23.69l.45,1.69c.2.78,0,1.07-.75,1.28a13.3,13.3,0,0,0-4,1.91c-.6.41-1,.38-1.37-.21-.7-.94-1.38-1.88-2.09-2.85A17.07,17.07,0,0,0,35.63,40l.58.38c.61-.7,1.2-1.4,1.81-2.08a.74.74,0,0,1,1.19,0c.51.5,1,1,1.51,1.51a.74.74,0,0,1,0,1.14,14.59,14.59,0,0,0-2.74,4,.74.74,0,0,1-1.09.4c-.37-.15-.73-.32-1.1-.48l-2.24-1a15.5,15.5,0,0,0-1.16,5l.64,0c.19-.95.36-1.86.57-2.75a.73.73,0,0,1,1-.59c.5.12,1,.26,1.49.39,1.24.33,1.29.41,1,1.69a.08.08,0,0,1,0,0,13.9,13.9,0,0,0-.26,4.17c.06.61-.17.89-.75,1s-.87.1-1.32.15l-2.27.24A14,14,0,0,0,34,58l.57-.29c-.3-.89-.61-1.73-.87-2.58A.79.79,0,0,1,34.3,54l1.78-.46c.76-.2,1-.05,1.26.71a13.12,13.12,0,0,0,1.91,4c.45.65.39,1-.24,1.43L36.2,61.75a17.12,17.12,0,0,0,3.7,3.51c.14-.23.26-.41.37-.58-.7-.61-1.39-1.19-2.05-1.79a.75.75,0,0,1,0-1.25l1.3-1.31c.58-.58.88-.6,1.48,0a14.29,14.29,0,0,0,3.65,2.51c.74.36.83.63.5,1.39-.46,1-.93,2.08-1.4,3.15a17.67,17.67,0,0,0,5,1.17c0-.27,0-.49,0-.67-1-.19-1.84-.36-2.73-.57a.74.74,0,0,1-.62-1c.18-.72.37-1.43.58-2.14a.73.73,0,0,1,.88-.57,15,15,0,0,0,5,.41.71.71,0,0,1,.82.69c.07.44.1.88.15,1.32.08.79.16,1.58.25,2.39A17.83,17.83,0,0,0,57.93,67l-.31-.61c-.9.3-1.74.61-2.6.87a.73.73,0,0,1-1.05-.5c-.22-.72-.42-1.45-.59-2.19a.69.69,0,0,1,.51-.9,14.53,14.53,0,0,0,4.49-2.15.74.74,0,0,1,1.06.19c.12.14.22.3.33.45l1.87,2.56A17.36,17.36,0,0,0,65.15,61l-.58-.37c-.61.7-1.18,1.37-1.77,2a.76.76,0,0,1-1.28,0l-1.37-1.36c-.49-.5-.5-.84,0-1.36A14,14,0,0,0,62.7,56.25ZM48.45,48.86l5.63,1.44.73,2.16-.37.5L55,53l.5,1.52L52.4,56l-.14,1.89-3-.25.22-1.49-4-.06.31-3.12,5.42.76,0-2.39-5.82-.55L45,48.88l.49-3.21L48,44l1.63.14,0-1.8,2.48.36,0,1.65,3.75.32-1.09,2.66-.88.51-5.48-1.23-.26,1.8-.21,1.21Z"/></svg>