<svg id="Layer_1" data-name="Layer 1" xmlns="http://www.w3.org/2000/svg" viewBox="0 0 100 100"><defs><style>.cls-1{fill:#ddba83;}.cls-2{fill:#a08047;}</style></defs><title>team_1</title><rect class="cls-1" x="11.43" y="12.07" width="77.31" height="77.31" rx="10.55"/><path class="cls-2" d="M90.63,52.17a2.26,2.26,0,0,0,.28-.25,3.36,3.36,0,0,0,1-2.4v-25a16,16,0,0,0-16-16H64.65a3.39,3.39,0,0,0-2.4,1l-.51.51H42.18l-.51-.51a3.39,3.39,0,0,0-2.4-1H24.34a16,16,0,0,0-16,16v.14a3.39,3.39,0,0,0,1.51,2.82v7.33a3.57,3.57,0,0,0-.51.42,3.38,3.38,0,0,0-1,2.4V51.78a3.38,3.38,0,0,0,1.41,2.75l.1.07V67.07a3.54,3.54,0,0,0-.52.42,3.42,3.42,0,0,0-1,2.4v6.17a16,16,0,0,0,16,16H42.72a3.37,3.37,0,0,0,2.09-.72l1-.78h5.68a3.38,3.38,0,0,0,2.82,1.5H75.89a16,16,0,0,0,16-16V71.19a3.39,3.39,0,0,0-1.51-2.82V68l.51-.51a3.39,3.39,0,0,0,1-2.4V57.26a3.37,3.37,0,0,0-1.51-2.81v-2.1ZM87,50.73l-3.92,3.13L87,56.32V66.55l-3,3,3,1.1v4.41A12.14,12.14,0,0,1,74.88,87.19H53.59l-2.44-5.08-6.5,5.08H25.35A12.14,12.14,0,0,1,13.22,75.05V69.89H14l1.73-8,3-5.07-5.53-4V37.08l7.14-2.59-3.22-4.61,2.19-2.19-6.1-2.43h0A12.13,12.13,0,0,1,25.35,13.39H40.77L44.35,17l8.65-.8,5.88,1.5,4.26-4.27H74.88A12.13,12.13,0,0,1,87,25.53Z"/><path class="cls-2" d="M53.92,38.38a2.63,2.63,0,0,1,1.25-.56,8.34,8.34,0,0,0-.8-.33l-.21.43Z"/><path class="cls-2" d="M41.18,39.53a8.22,8.22,0,0,1,2.13-2,2.42,2.42,0,0,1,.66-3c.36-.27.49-.25.7.16a2.39,2.39,0,0,1,.17,1.78,2.68,2.68,0,0,0-.07.27,9.26,9.26,0,0,1,1.49-.54,2.56,2.56,0,0,1,1.66-2.61c.47-.05.55,0,.6.52a2.71,2.71,0,0,1-.47,1.72,16,16,0,0,1,4.23,0l0,0-.06-.11a.47.47,0,0,1-.05-.1l-.07-.13L52,35.27a1.34,1.34,0,0,1-.07-.18,1.88,1.88,0,0,1-.14-.88v-.07c0-.61.23-.74.79-.51a2.57,2.57,0,0,1,1.51,2.52,12.23,12.23,0,0,1,1.45.52,2.44,2.44,0,0,1-.05-1.6,4.49,4.49,0,0,1,.47-.78,3.58,3.58,0,0,1,.71.49A2.43,2.43,0,0,1,57,37.47a9.4,9.4,0,0,1,2.23,2,2.53,2.53,0,0,0,.77-2.8c-.13-.31-.25-.36-.55-.22l-.6.31a4.19,4.19,0,0,0-1.65-3.2,9.3,9.3,0,0,0-4.41-2c-.51-.11-1-.18-1.54-.27H49c-.26.05-.53.1-.79.13a10.15,10.15,0,0,0-4.79,1.85,4.39,4.39,0,0,0-2,3.56c-.2-.13-.39-.27-.6-.39s-.43-.09-.52.18-.13.4-.17.6A2.51,2.51,0,0,0,41.18,39.53Z"/><path class="cls-2" d="M63.27,63.82a1.18,1.18,0,0,1-1.18,1.24H62c-.81,0-1.63,0-2.44,0H38.11a1,1,0,0,1-1-1c0-1.15-.06-2.31,0-3.46a3.17,3.17,0,0,1,2.21-2.73l1.06-.35a1,1,0,0,1,.6-1c.59-.26,1-.13,1.46.47l2.67-.79a1.59,1.59,0,0,0,1.23-1.65c0-.36,0-.71,0-1.06v-.2c0-.41,0-.83,0-1.25-.45-.39-.91-.76-1.34-1.17a9.63,9.63,0,0,1-.73-.83,8.71,8.71,0,0,1-.78.83.56.56,0,0,1-.84,0,.55.55,0,0,1,.16-.83,2,2,0,0,0,.79-1.31l-.35-1a3,3,0,0,1-1.52,1.53A.54.54,0,0,1,41,49a.52.52,0,0,1,.25-.72,2.4,2.4,0,0,0,1.28-1.7,1.45,1.45,0,0,1-1-1.67V43.65c-.47.23-.92.47-1.39.66a.55.55,0,0,1-.77-.33.56.56,0,0,1,.44-.72,1.9,1.9,0,0,0,1.45-1.94.17.17,0,0,0,0-.07,9,9,0,0,1,2.38-2.46l0,0a2.52,2.52,0,0,0,2.11.85l.83-.25a.47.47,0,0,0,.36-.6.75.75,0,0,1-.18-.13,2.29,2.29,0,0,0-1.43-.85c.24-.11.48-.21.74-.3a2.11,2.11,0,0,0,.78,1,1.61,1.61,0,0,1,.22.23l.8.27.55,0c.46,0,.67-.1.71-.44l-.12-.3a2.26,2.26,0,0,0-1.16-1.25,13.53,13.53,0,0,1,2.49-.23,13.31,13.31,0,0,1,2.37.21h0a2.21,2.21,0,0,0-1.26,1.5c-.08.29,0,.43.32.47a2.59,2.59,0,0,0,1.9-.45,1.33,1.33,0,0,1,.34-.16l-.24.27c-.29.41-.27.52.17.76a2.45,2.45,0,0,0,2.93-.6l0-.1a8.12,8.12,0,0,1,2.4,2.66,1.92,1.92,0,0,0,1.43,1.88c.41.15.57.41.46.74a.54.54,0,0,1-.78.28c-.46-.18-.9-.42-1.37-.65v1.18c.11.81-.16,1.27-1,1.72A2.27,2.27,0,0,0,59,48.18a.56.56,0,0,1,.32.81.58.58,0,0,1-.84.14,3.13,3.13,0,0,1-1.44-1.48l-.33,1.05a1.85,1.85,0,0,0,.69,1.19l.19.18a.55.55,0,0,1,.07.74.53.53,0,0,1-.74.09c-.33-.29-.61-.63-.91-.94A8.87,8.87,0,0,1,54,52c0,.43,0,.85,0,1.27a.34.34,0,0,1,0,.1c0,.39,0,.78,0,1.17a1.63,1.63,0,0,0,1.14,1.59c.56.18,1.13.33,1.69.5.34-.29.69-.53,1.13-.21l1.05.4a9.77,9.77,0,0,1,1,.41,2.28,2.28,0,0,1,.49.49,3.25,3.25,0,0,1,2.74,2.93c0,.13,0,.28,0,.41C63.26,62,63.27,62.9,63.27,63.82Z"/><path class="cls-2" d="M73.31,42.18a7.23,7.23,0,0,0-3.13-1.31,9.32,9.32,0,0,0-1.66-.15,7.86,7.86,0,0,0-3.49.89l-.08.06,0,0c-.3.18-.61.34-.9.53s-.51.39-.76.59h0L63,43.1c-.2.2-.38.41-.56.62a1.39,1.39,0,0,1,.56.74,1.21,1.21,0,0,1,.06.53,6.11,6.11,0,0,1,.71-.9.24.24,0,0,1-.14-.05A1.09,1.09,0,0,1,64,42.31a.17.17,0,0,1,.22,0,1.09,1.09,0,0,1,.28.94,2,2,0,0,1-.08.26l.12-.1a0,0,0,0,1,0,0,6.79,6.79,0,0,1,2.09-1.11,6.55,6.55,0,0,1,6.51,1.33,1.14,1.14,0,0,1-.13-.35,1.09,1.09,0,0,1,.28-.94.17.17,0,0,1,.22,0h0ZM63.23,61.05h0a.8.8,0,0,0-1.16-.51.68.68,0,0,0-.46.55,3.49,3.49,0,0,0,0,.56l-.79.27a2.51,2.51,0,0,0-1.72,2A.82.82,0,0,0,59.57,65l0,0h2.47a1.18,1.18,0,0,0,1.18-1.24C63.27,62.9,63.26,62,63.23,61.05Zm11-18.21-.42-.31a1.09,1.09,0,0,1,0,1.51.18.18,0,0,1-.2,0,7.53,7.53,0,0,1,.77,1,1.46,1.46,0,0,1,.06-.58,1.38,1.38,0,0,1,.53-.72C74.71,43.44,74.45,43.14,74.2,42.84Z"/><path class="cls-2" d="M78.37,64.25a.81.81,0,0,1-.56.81H62.09a1.18,1.18,0,0,0,1.18-1.24c0-.92,0-1.85,0-2.77h.14l.72-.26.15-.05.71-.25.15-.06a1.69,1.69,0,0,0,1.05-1.24c0-.31,0-.62,0-.93l0-.91c-.46-.36-.94-.68-1.37-1.07a4.45,4.45,0,0,1-1-1.48,1.21,1.21,0,0,0-.14-.2s0,0,0,0,0,0,0,0a6.55,6.55,0,0,1-.59-.45,7.25,7.25,0,0,1-2.29-6,7.72,7.72,0,0,1,1-3.27h0a1.39,1.39,0,0,0,.86.89h.08a7.74,7.74,0,0,0-.57,1.84.41.41,0,0,0,.38.47c.31,0,.43-.14.52-.59a6,6,0,0,1,.65-1.74.21.21,0,0,0,.07.14,1.4,1.4,0,0,0,2.19-.32.23.23,0,0,0,0-.28A1.37,1.37,0,0,0,64,45.23a5.64,5.64,0,0,1,.74-.81l.06-.1L65.1,44l0,0a.2.2,0,0,0,0,.22,1.1,1.1,0,0,0,1.75-.15.18.18,0,0,0,0-.23,1.11,1.11,0,0,0-.91-.36l-.12,0A5.52,5.52,0,0,1,70.14,43a7,7,0,0,1,1.46.56h-.28a1.1,1.1,0,0,0-.83.52.17.17,0,0,0,0,.22,1.08,1.08,0,0,0,.91.36,1.11,1.11,0,0,0,.84-.51.2.2,0,0,0,0-.15,5.06,5.06,0,0,1,1.18,1.22,1.36,1.36,0,0,0-1.85.08.23.23,0,0,0,0,.28,1.38,1.38,0,0,0,1,.7,1.36,1.36,0,0,0,1.17-.38.19.19,0,0,0,.07-.11,6.74,6.74,0,0,1,.64,1.77c.08.36.07.74.12,1.1s.22.45.47.44.38-.19.37-.51,0-.42,0-.63a7.11,7.11,0,0,0-.6-2.18.17.17,0,0,0,.1,0,1.39,1.39,0,0,0,.85-.86,7.49,7.49,0,0,1,.87,2.63,7.37,7.37,0,0,1-1.21,5.36,5.65,5.65,0,0,1-1.59,1.64l0,.07a5.64,5.64,0,0,1-1.21,1.72c-.36.31-.75.58-1.12.87l-.18.14c0,.3,0,.6,0,.91h0a5.29,5.29,0,0,0,0,.8,5.12,5.12,0,0,0,.26.75l.1.12a2.48,2.48,0,0,0,1.16.65l.26.11.23.1.63.21.25.07.41-.48a.75.75,0,0,1,.89,0,.74.74,0,0,1,.38.77,1.35,1.35,0,0,1,0,.29,4.69,4.69,0,0,1,1.75.82A2.62,2.62,0,0,1,78.37,64.25Z"/><polygon class="cls-2" points="63.23 42.84 63.23 42.85 63.24 42.84 63.23 42.84"/><path class="cls-2" d="M74.09,42.29a5.38,5.38,0,0,0-1.63-2.17,5.84,5.84,0,0,0-7.87.34,5.23,5.23,0,0,0-1.23,1.77,8.14,8.14,0,0,1,5.35-2A8.29,8.29,0,0,1,74.09,42.29Z"/><path class="cls-2" d="M41.71,60.37a2.55,2.55,0,0,0-2.16-2.24,1.78,1.78,0,0,0-.35-.37,7,7,0,0,0-.79-.35l-.82-.31a.56.56,0,0,0-.71,0,1.51,1.51,0,0,1-.22.11l-1.19-.34a1.29,1.29,0,0,1-.95-.95l0-1a5.94,5.94,0,0,0,2.62-3.09,6.12,6.12,0,0,0,.38-2.51,2.84,2.84,0,0,0,.5-.06,1,1,0,0,0,.73-.76,1.08,1.08,0,0,0-.41-1.12c0-.1,0-.2,0-.31l.18-1.52a1.26,1.26,0,0,1-.56.43,1.33,1.33,0,0,1-1.2-.09.23.23,0,0,1-.1-.26,1.37,1.37,0,0,1,.8-.9,1.32,1.32,0,0,1,1.15.07c0-.25,0-.5.07-.75a.17.17,0,0,1-.1.06,1.46,1.46,0,0,1-1.84-1.41.25.25,0,0,1,.18-.24,1.45,1.45,0,0,1,1.28.25,1.47,1.47,0,0,1,.54.85l.06-.55a3,3,0,0,0-1.3-3,3.66,3.66,0,0,0-2.16-.52,2.58,2.58,0,0,0-1.25-.74s0-.06,0-.08H29.54a.78.78,0,0,1-.15.1,11.8,11.8,0,0,0-1.46.46,5.67,5.67,0,0,0-2.64,2.39,5.34,5.34,0,0,0-.66,1.66,1.36,1.36,0,0,1,.44-.57,1.45,1.45,0,0,1,1.28-.25.25.25,0,0,1,.18.24A1.42,1.42,0,0,1,26,43.93a1.44,1.44,0,0,1-1.27.25.26.26,0,0,1-.18-.17,7.7,7.7,0,0,0,0,1.36c.06.7.14,1.39.21,2.09a1.06,1.06,0,0,0-.26,1.44,1.2,1.2,0,0,0,1.08.51c0,.3,0,.6.05.89a5.39,5.39,0,0,0,.69,2.36A5.8,5.8,0,0,0,28.52,55c0,.33,0,.66,0,1a1.37,1.37,0,0,1-.88.93l-2.16.63c-.36-.47-.7-.58-1.14-.37a.81.81,0,0,0-.48.86,9.15,9.15,0,0,0-1.05.33,2.36,2.36,0,0,0-1.5,2.13c-.05,1.28,0,2.56,0,3.84a.8.8,0,0,0,.82.83h4.74l.06.06H38.72l.05-.06h2a.88.88,0,0,0,1-1C41.75,62.91,41.74,61.64,41.71,60.37ZM35.14,44a1.19,1.19,0,0,1,1.88.3.2.2,0,0,1,0,.24,1.2,1.2,0,0,1-1.88-.29A.23.23,0,0,1,35.14,44ZM26.67,46a1.46,1.46,0,0,1-2.16-.87.24.24,0,0,1,.12-.27,1.45,1.45,0,0,1,2.15.87A.24.24,0,0,1,26.67,46Zm1.5-1.61a1.18,1.18,0,0,1-.92.53,1.23,1.23,0,0,1-1-.43.21.21,0,0,1,0-.24,1.2,1.2,0,0,1,.93-.53,1.18,1.18,0,0,1,1,.43A.2.2,0,0,1,28.17,44.42Z"/></svg>