<svg id="Layer_1" data-name="Layer 1" xmlns="http://www.w3.org/2000/svg" viewBox="0 0 100 100"><defs><style>.cls-1{fill:#ddba83;}.cls-2{fill:#a08047;}</style></defs><title>waitlist</title><rect class="cls-1" x="11.35" y="12.07" width="77.31" height="77.31" rx="10.55"/><path class="cls-2" d="M90.61,38.15a3.42,3.42,0,0,0,1-2.4V24.52a16,16,0,0,0-16-16h-25a3.38,3.38,0,0,0-2.39,1,1.67,1.67,0,0,0-.25.28l-.19.23H45.65a3.38,3.38,0,0,0-2.82-1.5H35.05a3.34,3.34,0,0,0-2.39,1l-.52.51h-.42a3.37,3.37,0,0,0-2.81-1.5H24a16,16,0,0,0-16,16V46.1a3.38,3.38,0,0,0,1.51,2.81v5.68l-.79,1A3.41,3.41,0,0,0,8,57.68V76.06a16,16,0,0,0,16,16H30.2a3.41,3.41,0,0,0,2.4-1,3.35,3.35,0,0,0,.42-.51H45.49l.08.09a3.36,3.36,0,0,0,2.74,1.41H62.46a3.4,3.4,0,0,0,2.4-1,3.35,3.35,0,0,0,.42-.51h7.34a3.4,3.4,0,0,0,2.81,1.5h.15a16,16,0,0,0,16-16V61.13a3.38,3.38,0,0,0-1-2.39l-.51-.52V38.66Zm-3.9-.89-4.27,4.26,1.5,5.88-.81,8.65,3.58,3.58V75.05A12.13,12.13,0,0,1,74.84,87.18h0l-2.42-6.09-2.19,2.19L65.6,80,63,87.19H47.23l-4-5.54-5.08,3-8,1.73v.81H25.05A12.14,12.14,0,0,1,12.91,75.05V55.75L18,49.25l-5.07-2.43V25.53A12.13,12.13,0,0,1,25.05,13.39h4.41l1.09,3,3-3H43.78l2.45,3.92,3.14-3.92h25.2A12.14,12.14,0,0,1,86.71,25.53Z"/><rect class="cls-2" x="52.54" y="60.25" width="3.9" height="0.95"/><path class="cls-2" d="M55.08,46.74c-.54,0-1.07,0-1.66,0,.51.82,1,1.56,1.46,2.37a1,1,0,0,0,1.15.57.38.38,0,0,0,.25-.13c.19-.26.37-.54.56-.83l-1.47-1.82A.43.43,0,0,0,55.08,46.74Z"/><rect class="cls-2" x="43.97" y="60.24" width="2.91" height="0.96"/><path class="cls-2" d="M32.39,67.79c0,1.07,0,2.14,0,3.21a2.31,2.31,0,0,1-2.66.61,2.37,2.37,0,0,1,0-4.43A2.31,2.31,0,0,1,32.39,67.79Z"/><path class="cls-2" d="M69.83,67.18a2.3,2.3,0,0,0-2.65.61l0-.49a1.19,1.19,0,0,0-1.23-1.21,1.21,1.21,0,0,0-1.13,1.27l0,.9-1.08,0H62.33q0-18.54,0-37.09c0-.12,0-.24,0-.36l1.35,0,1.08,0c0,.34,0,.69,0,1a1.27,1.27,0,0,0,.9,1.12,1.07,1.07,0,0,0,1.23-.52,4.9,4.9,0,0,0,.26-1.16,2.3,2.3,0,0,0,2.65.61,2.37,2.37,0,0,0,1.54-2.17,2.4,2.4,0,0,0-1.54-2.26,2.3,2.3,0,0,0-2.66.62c0-.18,0-.36,0-.54a1.18,1.18,0,0,0-1.22-1.17,1.23,1.23,0,0,0-1.13,1.27c0,.3,0,.6,0,.9l-1.09,0-.27,0H34.81c0-.35,0-.7,0-1a1.26,1.26,0,0,0-.89-1.09,1,1,0,0,0-1.21.46,4.77,4.77,0,0,0-.28,1.2,2.31,2.31,0,0,0-2.66-.61,2.37,2.37,0,0,0,0,4.43,2.31,2.31,0,0,0,2.66-.61c0,.15,0,.3,0,.45A1.2,1.2,0,0,0,33.65,33a1.23,1.23,0,0,0,1.14-1.32c0-.28,0-.57,0-.85h2.42q0,5.66,0,11.31a.92.92,0,0,0,.43.92,7.38,7.38,0,0,1,.71.54.57.57,0,0,1,.09,1,10.06,10.06,0,0,1-.8.8,1.26,1.26,0,0,0-.43,1q0,10.95,0,21.88H35.89l-1.08,0c0-.34,0-.69,0-1a1.26,1.26,0,0,0-.86-1.1,1,1,0,0,0-1.25.46,5.25,5.25,0,0,0-.28,1.2V71a1.55,1.55,0,0,0,.87,1.71h.63a1.48,1.48,0,0,0,.89-1.6,3.79,3.79,0,0,1,0-.58h2.44c0,1,.31,1.28,1.31,1.28,5.23,0,10.47,0,15.7,0a2.54,2.54,0,0,0,2.15-.67.6.6,0,0,1,1,0,2.75,2.75,0,0,0,2.3.67h1.4c1,0,1.26-.3,1.27-1.27h2.44a5.66,5.66,0,0,1,0,.58,1.47,1.47,0,0,0,.89,1.6h.63A1.58,1.58,0,0,0,67.17,71h0a2.3,2.3,0,0,0,2.66.62,2.4,2.4,0,0,0,1.54-2.26A2.37,2.37,0,0,0,69.83,67.18ZM54,37.88h2.92v.95H54Zm2.92,1.48v1H52.06v-1Zm-4.88-1.47H53v.93h-.95ZM51.56,55h5.87v.94H51.56Zm-3.69,6.61c0,.44-.17.61-.61.61H43.58c-.46,0-.62-.16-.62-.62s0-1.13,0-1.69c0-.31.07-.48.24-.57a1,1,0,0,1,.38-.07h3.65a.9.9,0,0,1,.4.07c.18.09.24.26.24.58C47.88,60.45,47.88,61,47.87,61.58ZM44.11,47.37a3.7,3.7,0,0,1,.14-2.66,1.27,1.27,0,0,1,1.17-.93,1.29,1.29,0,0,1,1.17.95,3.78,3.78,0,0,1,.14,2.63,2.76,2.76,0,0,0-.08.27.21.21,0,0,0,0,.06h1.19v1H45.92v.13h-1V48.7H43.45l-.47,0v-1l.47,0h.75C44.16,47.58,44.14,47.47,44.11,47.37Zm-.54,7.57h4.29v1H43V55Zm4.17-14.78A.48.48,0,0,1,47,40.1c-.1-.13-.18-.28-.27-.41l-.3-.44-.51.76A.52.52,0,0,1,45,40l-.5-.73c-.39.32-.43.94-1,1A1.83,1.83,0,0,1,43,40c-.31-.41-.58-.86-.89-1.33l.81-.55c.16.25.31.48.47.7,0,0,.11,0,.17.07.16-.24.31-.48.48-.71a.5.5,0,0,1,.89,0c.18.25.34.5.54.79l.51-.75a.52.52,0,0,1,.94,0l.51.76.3-.43.28-.42.82.54C48.43,39.15,48.1,39.67,47.74,40.16Zm9.7,21.45a.82.82,0,0,1,0,.23c-.06.24-.24.35-.55.35-.79,0-1.58,0-2.37,0s-1.57,0-2.36,0c-.33,0-.51-.1-.57-.35a.9.9,0,0,1,0-.25V59.81a.51.51,0,0,1,.57-.57h4.76c.4,0,.57.19.58.59C57.45,60.42,57.45,61,57.44,61.61Zm.36-12.56c-.29.43-.58.85-.86,1.28a.63.63,0,0,1-.61.33h-.85v1.45h-1c0-.5,0-1,0-1.5a1.3,1.3,0,0,0-.17-.57c-.69-1.13-1.41-2.26-2.1-3.39A1.53,1.53,0,0,1,52,46c0-.41,0-.82,0-1.25l-.48,0v-1a9.35,9.35,0,0,1,1.06,0c.28,0,.4.25.4.54v1.41c.62,0,1.21,0,1.8,0a1.64,1.64,0,0,1,1.45.7c.49.63,1,1.25,1.5,1.87A.55.55,0,0,1,57.8,49.05Z"/><path class="cls-2" d="M45.42,47.7c.69-.54.6-2.62,0-2.93C44.77,45.17,44.75,47.26,45.42,47.7Z"/></svg>